HIERARCHY
ROOT pelvis
{
  OFFSET 0 100 0
  CHANNELS 6 Xposition Yposition Zposition Zrotation Xrotation Yrotation
  JOINT pelvis_right_femur
  {
    OFFSET -10.78128 -3.44521 -0.5502486
    CHANNELS 3 Zrotation Xrotation Yrotation
    JOINT right_femur_tibia
    {
      OFFSET -0.8047443 -44.0398 -0.1307829
      CHANNELS 3 Zrotation Xrotation Yrotation
      JOINT right_tibia_foot
      {
        OFFSET 3.006224 -47.83518 -5
        CHANNELS 3 Zrotation Xrotation Yrotation
        End Site
        {
          OFFSET 0 -5 15
        }
      }
    }
  }
  JOINT pelvis_left_femur
  {
    OFFSET 10.78128 -3.44521 -0.5502486
    CHANNELS 3 Zrotation Xrotation Yrotation
    JOINT left_femur_tibia
    {
      OFFSET 0.8047443 -44.0398 -0.1307829
      CHANNELS 3 Zrotation Xrotation Yrotation
      JOINT left_tibia_foot
      {
        OFFSET -4.370144 -48.10324 -4.275266
        CHANNELS 3 Zrotation Xrotation Yrotation
        End Site
        {
          OFFSET 0 -5 15
        }
      }
    }
  }
  JOINT pelvis_spine1
  {
    OFFSET 0 6.468898 -3.129235
    CHANNELS 3 Zrotation Xrotation Yrotation
    JOINT spine1
    {
      OFFSET 0 23.15396 4.99043
      CHANNELS 3 Zrotation Xrotation Yrotation
      JOINT spine2
      {
        OFFSET 0 20.79997 -5.064912
        CHANNELS 3 Zrotation Xrotation Yrotation
        JOINT neck
        {
          OFFSET 0 14.38658 9.616178
          CHANNELS 3 Zrotation Xrotation Yrotation
          End Site
          {
            OFFSET 0 20 0
          }
        }
      }
      JOINT right_manubrium
      {
        OFFSET -5.722621 16.35077 3.967754
        CHANNELS 3 Zrotation Xrotation Yrotation
        JOINT right_clavicle
        {
          OFFSET -13.16364 1.694482 -4.693211
          CHANNELS 3 Zrotation Xrotation Yrotation
          JOINT right_humerus
          {
            OFFSET -28.5034 -0.3100689 -2.792744
            CHANNELS 3 Zrotation Xrotation Yrotation
            JOINT right_radius
            {
              OFFSET -25.15693 0.02248979 -1.271978
              CHANNELS 3 Zrotation Xrotation Yrotation
              End Site
              {
                OFFSET -15 0 0
              }
            }
          }
        }
      }
      JOINT left_manubrium
      {
        OFFSET 5.722621 16.35077 3.967754
        CHANNELS 3 Zrotation Xrotation Yrotation
        JOINT left_clavicle
        {
          OFFSET 13.16364 1.694482 -4.693211
          CHANNELS 3 Zrotation Xrotation Yrotation
          JOINT left_humerus
          {
            OFFSET 29.39168 -1.063119 -2.237045
            CHANNELS 3 Zrotation Xrotation Yrotation
            JOINT left_radius
            {
              OFFSET 24.59957 -0.9528479 0.9047498
              CHANNELS 3 Zrotation Xrotation Yrotation
              End Site
              {
                OFFSET 15 -0 -0
              }
            }
          }
        }
      }
    }
  }
}
MOTION
Frames: 23
Frame Time: 0.0416666666667
-838.3487 115.5326 2652.353 -4.489676 -4.706418 -54.71421 0.8608977 -22.02924 -6.209688 -0 12.27575 -0 -10.44339 7.77893 0.3165631 -6.029122 14.88345 -10.00084 -0 13.44454 -0 4.590724 -19.36138 17.53281 -1.47775 -0.7069437 4.815221 1.243073 12.82655 -8.683652 -0.6402345 19.43506 8.162825 7.146772 -20.32102 4.391415 3.880869 -17.87046 11.8917 90.3569 34.34316 -22.60826 -0 0 11.22645 -19.15475 10.19276 5.689742 9.96808 -27.87403 -4.529153 -86.18296 6.115745 12.25991 0 0 -21.39985 19.47901 7.851196 -12.88612
-843.0219 114.5518 2655.736 -3.760544 -3.72299 -54.62051 1.743722 -24.06797 -6.395583 -0 7.508781 -0 -10.42475 7.679816 0.5027935 -5.769083 15.21515 -9.237221 -0 17.01014 -0 3.680873 -19.25705 15.81422 -1.505246 -0.6803483 4.698306 1.320364 12.77038 -8.764248 -0.6312782 19.42229 8.187024 7.113235 -20.40707 4.444605 3.935934 -17.67096 11.8747 90.47708 34.34734 -22.86616 -0 0 10.86256 -19.07813 10.21916 5.76447 9.955736 -27.8559 -4.490761 -86.02736 6.283119 11.9024 0 0 -21.70419 19.32331 7.794201 -12.63645
-847.9683 113.7577 2659.222 -3.380727 -2.917934 -54.61675 2.788244 -24.62951 -6.187875 -0 4.84335 -0 -10.64679 7.420111 0.5224452 -5.359428 15.00213 -8.514587 -0 22.17934 -0 2.637233 -18.0549 14.06255 -1.532508 -0.6501354 4.677573 1.350507 12.71652 -8.751885 -0.5953377 19.44209 8.136289 7.019058 -20.40558 4.469344 3.942626 -17.62162 11.86187 90.34855 34.17464 -22.74194 -0 0 10.84824 -19.05373 10.20235 5.922917 9.838272 -27.67161 -4.468724 -85.97763 6.633444 11.86839 0 0 -21.72855 18.88167 7.778636 -12.03102
-853.1506 113.3372 2662.78 -3.409333 -2.414237 -54.72395 3.954236 -23.46652 -5.578584 -0 4.298109 -0 -10.99972 6.794052 0.3377064 -4.827072 14.05392 -7.872304 -0 28.92797 -0 1.660518 -15.7816 12.55756 -1.55775 -0.6205825 4.746261 1.335944 12.66837 -8.656941 -0.5393996 19.48716 8.027798 6.882208 -20.33254 4.470778 3.910648 -17.71083 11.8545 90.01024 33.87681 -22.28999 -0 0 11.14816 -19.07852 10.15363 6.14053 9.641813 -27.35621 -4.457249 -86.03473 7.107316 12.13234 0 0 -21.49386 18.23915 7.795378 -11.17969
-858.4744 113.4312 2666.353 -3.816575 -2.273529 -54.97 5.124239 -20.56418 -4.654728 -0 5.54365 -0 -11.34913 5.708666 -0.007090051 -4.219659 12.05469 -7.312889 -0 36.87913 -0 0.8761708 -12.73097 11.55351 -1.578789 -0.5963137 4.901996 1.277274 12.62982 -8.485362 -0.4691196 19.55109 7.874936 6.717656 -20.20158 4.453006 3.847735 -17.93563 11.85427 89.49153 33.49464 -21.54685 -0 0 11.74445 -19.15206 10.08313 6.399104 9.3871 -26.93642 -4.450614 -86.20925 7.651344 12.68838 0 0 -21.0033 17.4672 7.838777 -10.17522
-863.7955 114.0677 2669.859 -4.488977 -2.4829 -55.37664 6.12628 -16.26982 -3.609087 -0 7.749872 -0 -11.56329 4.217857 -0.3881058 -3.585493 8.721316 -6.77553 -0 45.08888 -0 0.3028807 -9.483926 11.21315 -1.593273 -0.5814766 5.143928 1.174532 12.60499 -8.241092 -0.3889576 19.62837 7.687352 6.537087 -20.02338 4.41842 3.759432 -18.29704 11.86282 88.81576 33.05607 -20.53825 -0 0 12.62775 -19.27496 9.999001 6.686 9.089671 -26.43282 -4.444543 -86.51468 8.219792 13.53893 0 0 -20.25322 16.62137 7.90618 -9.090198
-868.9592 115.107 2673.219 -5.26763 -2.948685 -55.94415 6.817193 -11.26269 -2.680961 -0 9.713782 -0 -11.56362 2.453321 -0.6574572 -2.925197 4.034658 -6.151723 -0 52.01899 -0 -0.103819 -6.737461 11.54912 -1.599071 -0.5787854 5.467982 1.029405 12.59721 -7.929727 -0.3022402 19.7143 7.471772 6.348641 -19.80633 4.368195 3.64959 -18.79235 11.88108 88.0082 32.5757 -19.29223 -0 0 13.78235 -19.44666 9.907847 6.993448 8.760866 -25.86297 -4.436891 -86.959 8.776448 14.67759 0 0 -19.24822 15.74009 7.995624 -7.974904
-873.8588 116.2558 2676.389 -6.009746 -3.509723 -56.64512 7.157639 -6.287467 -2.060233 -0 10.38388 -0 -11.38039 0.4673438 -0.7406347 -2.152195 -1.58993 -5.351132 -0 55.87745 -0 -0.356544 -4.962802 12.39964 -1.594774 -0.5887303 5.863093 0.8470048 12.60791 -7.561214 -0.2110945 19.80501 7.232949 6.156639 -19.55755 4.303364 3.521043 -19.40865 11.90859 87.10217 32.05596 -17.84975 -0 0 15.17391 -19.66359 9.815549 7.318112 8.408756 -25.24341 -4.427651 -87.5375 9.297451 16.0752 0 0 -18.01295 14.84417 8.103303 -6.855568
-878.4743 117.1707 2679.386 -6.625003 -3.973197 -57.43168 7.214579 -1.808167 -1.802413 -0 9.484374 -0 -11.15979 -1.847373 -0.689367 -1.135773 -7.37385 -4.381247 -0 55.31634 -0 -0.4030247 -4.138563 13.48059 -1.58007 -0.6093598 6.310212 0.6362096 12.63599 -7.150483 -0.1166367 19.89768 6.974916 5.9623 -19.2837 4.225749 3.37618 -20.12016 11.9433 86.1408 31.4916 -16.26861 -0 0 16.74483 -19.91888 9.72736 7.659707 8.039554 -24.59083 -4.418448 -88.22987 9.771898 17.67476 0 0 -16.59622 13.94028 8.222094 -5.738574
-882.8664 117.5982 2682.283 -7.052608 -4.165855 -58.24814 7.097459 2.121955 -1.791343 -0 7.698397 -0 -11.08056 -4.614431 -0.6227771 0.1652675 -12.51402 -3.396702 -0 50.14528 -0 -0.2217561 -3.834532 14.518 -1.555784 -0.6368168 6.783551 0.4087847 12.67819 -6.716843 -0.01976979 19.99044 6.702864 5.7661 -18.99209 4.138306 3.21747 -20.88927 11.98184 85.17601 30.87786 -14.6232 -0 0 18.41544 -20.20273 9.647285 8.017436 7.66039 -23.92461 -4.411975 -89.00082 10.19739 19.39338 0 0 -15.06903 13.03174 8.342001 -4.624543
-887.1393 117.4609 2685.177 -7.229252 -3.999512 -59.04245 6.881254 5.680474 -1.798425 -0 6.199287 -0 -11.21778 -7.713514 -0.6156726 1.593414 -16.53219 -2.664197 -0 41.55296 -0 0.0771233 -3.590594 15.36941 -1.523571 -0.6665608 7.252728 0.178307 12.73022 -6.28339 0.07758032 20.08165 6.425312 5.570971 -18.6924 4.045068 3.048408 -21.66942 12.02015 84.26576 30.22103 -13.00266 -0 0 20.08794 -20.50221 9.5777 8.384814 7.282878 -23.2708 -4.411478 -89.80229 10.57226 21.12778 0 0 -13.52009 12.1333 8.452791 -3.528209
-891.4063 116.845 2688.154 -7.124908 -3.537293 -59.77864 6.567555 9.008095 -1.638632 -0 5.924361 -0 -11.4583 -10.66395 -0.638212 2.831346 -19.34193 -2.415285 -0 31.63454 -0 0.3035236 -3.226357 16.04521 -1.485557 -0.6948963 7.686225 -0.04092733 12.7878 -5.875755 0.1715934 20.1689 6.155158 5.384248 -18.39832 3.950975 2.874837 -22.41024 12.05447 83.46703 29.54665 -11.50393 -0 0 21.65576 -20.8004 9.519787 8.745993 6.92479 -22.66342 -4.419939 -90.57825 10.89009 22.76511 0 0 -12.04733 11.28061 8.547921 -2.491289
-895.7751 115.9225 2691.287 -6.809363 -2.994613 -60.44454 6.106208 12.08793 -1.301275 -0 7.176748 -0 -11.5565 -12.7707 -0.5782608 3.563911 -21.06197 -2.696869 -0 22.52703 -0 0.3351432 -2.852061 16.63944 -1.444177 -0.7199403 8.05663 -0.2355725 12.84729 -5.518803 0.2568674 20.24856 5.908109 5.21668 -18.12676 3.861358 2.705398 -23.06541 12.08231 82.82415 28.89834 -10.2163 -0 0 23.02071 -21.07713 9.474014 9.077007 6.607501 -22.13966 -4.439099 -91.27312 11.14096 24.20077 0 0 -10.74379 10.52535 8.627017 -1.576746
-900.3434 114.8778 2694.632 -6.447492 -2.63526 -61.04329 5.453007 14.78104 -0.9394396 -0 9.756452 -0 -11.31578 -13.4107 -0.3249299 3.622544 -21.81371 -3.368087 -0 15.65935 -0 0.1946499 -2.678402 17.2349 -1.402194 -0.7413179 8.345117 -0.3951498 12.90553 -5.232498 0.3277367 20.31661 5.699279 5.079363 -17.89408 3.780979 2.550138 -23.59949 12.10266 82.36041 28.32621 -9.205728 -0 0 24.10937 -21.31242 9.439851 9.351482 6.350806 -21.73137 -4.469091 -91.84057 11.31675 25.35449 0 0 -9.684262 9.919447 8.694391 -0.8488083
-905.1907 113.8775 2698.232 -6.213017 -2.634153 -61.57347 4.609904 16.90066 -0.7499989 -0 13.35752 -0 -10.7581 -12.23865 0.1504248 3.016421 -21.64645 -4.229207 -0 11.49359 -0 0.004892154 -2.841233 17.84684 -1.362701 -0.7590066 8.54165 -0.512793 12.95953 -5.030256 0.37942 20.36981 5.540792 4.981429 -17.71251 3.713269 2.418394 -23.98864 12.11545 82.08059 27.87434 -8.511905 -0 0 24.8759 -21.48987 9.415168 9.545929 6.169669 -21.46054 -4.508969 -92.24658 11.41433 26.17262 0 0 -8.922472 9.502828 8.754927 -0.3572658
-910.3593 113.0763 2702.103 -6.19997 -3.009565 -62.01487 3.622436 18.23951 -0.8568282 -0 17.85947 -0 -10.14253 -9.215229 0.7943657 1.869508 -20.57139 -5.148046 -0 9.774876 -0 -0.1071488 -3.35741 18.42828 -1.328966 -0.7724592 8.640924 -0.5841306 13.00624 -4.921185 0.4080515 20.40598 5.442238 4.930275 -17.58991 3.660401 2.317939 -24.21525 12.12077 81.98212 27.57745 -8.16004 -0 0 25.29004 -21.59718 9.396379 9.64049 6.075417 -21.34233 -4.557531 -92.46522 11.43304 26.616 0 0 -8.500019 9.304493 8.810914 -0.1385632
-915.8253 112.6278 2706.215 -6.394472 -3.645501 -62.32689 2.55498 18.5486 -1.258706 -0 23.35698 -0 -9.846706 -4.561766 1.537324 0.3469242 -18.61343 -6.10265 -0 9.952717 -0 -0.07500917 -4.175416 18.90701 -1.304131 -0.7806261 8.637567 -0.6052962 13.04279 -4.9141 0.4097847 20.42302 5.413026 4.933555 -17.53252 3.623957 2.255923 -24.26158 12.11851 82.06678 27.46614 -8.17717 -0 0 25.3214 -21.62413 9.379815 9.616168 6.079512 -21.39209 -4.613673 -92.47251 11.36792 26.64502 0 0 -8.4584 9.352935 8.861235 -0.2288076
-921.4701 112.6703 2710.476 -6.705002 -4.35401 -62.45641 1.475774 17.53056 -1.825545 -0 29.96826 -0 -10.21009 1.190974 2.327253 -1.366989 -15.82782 -7.154303 -0 11.42066 -0 0.1009571 -5.225223 19.22163 -1.290736 -0.7826507 8.524028 -0.571665 13.06708 -5.019891 0.3799943 20.41745 5.464219 5.000723 -17.54823 3.605702 2.240442 -24.10756 12.10856 82.3465 27.57321 -8.600673 -0 0 24.93255 -21.5614 9.36419 9.453413 6.196076 -21.63 -4.675788 -92.24517 11.20272 26.21465 0 0 -8.842797 9.684751 8.901433 -0.6744378
-927.0728 113.2744 2714.721 -7.027123 -4.948427 -62.35714 0.4659746 14.93673 -2.328744 -0 37.45244 -0 -11.34552 7.037729 3.059622 -3.043975 -12.28929 -8.379398 -0 13.4848 -0 0.3959464 -6.425041 19.35826 -1.290092 -0.7787111 8.292526 -0.4783505 13.07841 -5.249757 0.313636 20.38352 5.607868 5.142166 -17.64801 3.60831 2.28121 -23.73552 12.09147 82.84165 27.93293 -9.471884 -0 0 24.08702 -21.40273 9.353663 9.136581 6.44026 -22.07796 -4.740052 -91.76897 10.90703 25.28671 0 0 -9.690291 10.34224 8.922948 -1.528623
-932.3643 114.3612 2718.743 -7.32075 -5.342483 -62.02383 -0.3631933 10.80946 -2.554161 -0 44.68656 -0 -12.89807 11.52205 3.438471 -4.413133 -8.085537 -9.760181 -0 15.25042 -0 0.8331848 -7.690463 19.39713 -1.301592 -0.7705843 7.941064 -0.3228496 13.07769 -5.608262 0.2074858 20.31395 5.85259 5.364766 -17.84398 3.635933 2.387922 -23.14202 12.06879 83.57086 28.56876 -10.81215 -0 0 22.77352 -21.1509 9.36027 8.665747 6.821008 -22.74653 -4.798122 -91.05656 10.44268 23.86014 0 0 -11.00072 11.35488 8.912035 -2.826948
-937.1647 115.6561 2722.379 -7.624023 -5.626823 -61.52295 -0.9008564 5.673726 -2.520999 -0 49.47797 -0 -14.05743 13.44622 3.069171 -5.27758 -3.367341 -11.08018 -0 15.80203 -0 1.516609 -9.023752 19.51451 -1.322387 -0.7614708 7.481916 -0.1093744 13.06673 -6.082592 0.06422895 20.20378 6.195154 5.663955 -18.14266 3.693881 2.565077 -22.35348 12.04299 84.53229 29.46914 -12.58538 -0 0 21.04042 -20.82433 9.402548 8.071687 7.328944 -23.61378 -4.836419 -90.16689 9.785575 22.00971 0 0 -12.69962 12.70511 8.85153 -4.543464
-941.5083 116.7746 2725.606 -7.920416 -5.95376 -60.9729 -1.123969 0.2810293 -2.57797 -0 49.61781 -0 -14.22878 12.93338 2.007005 -5.681209 1.52948 -11.9897 -0 14.82774 -0 2.514529 -10.58833 19.83354 -1.348132 -0.7546028 6.9475 0.1475356 13.04691 -6.634699 -0.1037681 20.05644 6.611542 6.01603 -18.53408 3.785961 2.804279 -21.43513 12.0164 85.68231 30.56196 -14.66737 -0 0 19.01968 -20.45768 9.496661 7.421453 7.925484 -24.60848 -4.840438 -89.20586 8.959785 19.90354 0 0 -14.62269 14.29388 8.729108 -6.548009
-945.6026 117.4199 2728.535 -8.023309 -6.277238 -60.47131 -1.098619 -4.918725 -3.06204 -0 44.77081 -0 -13.56521 11.29574 0.8798053 -5.860814 6.059118 -12.28542 -0 12.99226 -0 3.683037 -12.51588 20.22553 -1.37481 -0.7511674 6.387517 0.4236838 13.01837 -7.205702 -0.275318 19.88765 7.055751 6.378654 -18.98369 3.909376 3.079986 -20.48147 11.99015 86.92567 31.71345 -16.85222 -0 0 16.91339 -20.09239 9.642887 6.802141 8.544089 -25.61718 -4.803922 -88.29383 8.057251 17.77004 0 0 -16.55131 15.93925 8.549411 -8.607097
